<?xml version="1.0" encoding="UTF-8"?>
<svg width="629px" height="420px" viewBox="0 0 629 420" version="1.1" xmlns="http://www.w3.org/2000/svg" xmlns:xlink="http://www.w3.org/1999/xlink">
    <!-- Generator: Sketch 50.2 (55047) - http://www.bohemiancoding.com/sketch -->
    <title>Group 10</title>
    <desc>Created with Sketch.</desc>
    <defs></defs>
    <g id="RANGE" stroke="none" stroke-width="1" fill="none" fill-rule="evenodd">
        <g id="Range-Copy-5" transform="translate(-1091.000000, -2208.000000)" fill="#F9F9F9">
            <g id="Group-10" transform="translate(1091.000000, 2208.000000)">
                <path d="M129.162828,353.913732 C148.818375,353.913732 165.10429,345.583844 176.896722,337.253323 L176.896722,291.713773 C169.598414,290.049569 160.614009,288.936933 151.625761,288.936933 C118.492326,288.936933 92.099436,300.043661 92.099436,323.924489 C92.099436,345.583844 106.699895,353.913732 129.162828,353.913732 Z M24.1458284,138.991351 C53.3499473,128.439358 98.8367792,119 140.394295,119 C236.987854,119 269,169.535329 269,237.843703 L269,414.446319 L176.896722,414.446319 L176.896722,387.233917 C157.805982,405.006962 130.848925,420 93.221366,420 C33.1302334,420 0,386.12508 0,333.922381 C0,268.390847 53.3499473,232.847923 133.656952,232.847923 C149.382542,232.847923 163.98236,233.957393 176.896722,236.179498 C176.335757,206.74499 161.735939,195.638262 131.40989,195.638262 C101.083841,195.638262 62.8953172,204.522885 39.8714187,213.966042 L24.1458284,138.991351 Z" id="Fill-1"></path>
                <path d="M301.05427,413 L395.385496,413 L395.385496,122.678914 L301.05427,122.678914 L301.05427,413 Z M348.780437,0 C380.223325,0 401,11.1018749 401,42.7446553 C401,74.9381302 380.223325,86.5976624 348.780437,86.5976624 C317.338189,86.5976624 296,74.9381302 296,42.7446553 C296,11.1018749 317.338189,0 348.780437,0 Z" id="Fill-3"></path>
                <path d="M632,123.084038 L632,217.016911 C619.067047,210.857002 601.650303,205.815508 583.659387,205.815508 C552.201719,205.815508 530.273629,226.541011 522.412736,253.426423 L522.412736,417 L428,417 L428,124.042133 L522.412736,124.042133 L522.412736,175.00574 C539.269407,141.402168 563.999786,119 602.211017,119 C612.487787,119 622.497336,120.423729 632,123.084038" id="Fill-5"></path>
            </g>
        </g>
    </g>
</svg>