<?xml version="1.0" encoding="UTF-8"?>
<svg width="282px" height="188px" viewBox="0 0 282 188" version="1.1" xmlns="http://www.w3.org/2000/svg" xmlns:xlink="http://www.w3.org/1999/xlink">
    <!-- Generator: Sketch 50.2 (55047) - http://www.bohemiancoding.com/sketch -->
    <title>Group 2</title>
    <desc>Created with Sketch.</desc>
    <defs></defs>
    <g id="Styles" stroke="none" stroke-width="1" fill="none" fill-rule="evenodd">
        <g id="contact-modul" transform="translate(-386.000000, -192.000000)" fill="#C3002F">
            <g id="Group" transform="translate(386.000000, 192.000000)">
                <g id="Group-2">
                    <path d="M57.50071,158.365609 C66.2509668,158.365609 73.5011307,154.630322 78.7508856,150.894752 L78.7508856,130.473916 C75.5018247,129.727654 71.5021472,129.228726 67.5007591,129.228726 C52.7504159,129.228726 41.0008285,134.209203 41.0008285,144.917839 C41.0008285,154.630322 47.5006609,158.365609 57.50071,158.365609 Z M10.7492403,61.9901586 C23.7503304,57.2584358 44.0001591,53.025641 62.5007346,53.025641 C105.502257,53.025641 119.753425,75.686683 119.753425,106.31751 L119.753425,185.50962 L78.7508856,185.50962 L78.7508856,173.30704 C70.2520697,181.276825 58.2513266,188 41.5002893,188 C14.7489179,188 0,172.809815 0,149.401091 C0,120.015454 23.7503304,104.077304 59.501404,104.077304 C66.5021226,104.077304 73.0016699,104.574812 78.7508856,105.571248 C78.5011552,92.3722317 72.001608,87.3917549 58.501057,87.3917549 C45.0005061,87.3917549 27.9997384,91.3757956 17.7499589,95.6102942 L10.7492403,61.9901586 Z" id="Fill-1"></path>
                    <path d="M134.539615,185.107692 L176.185651,185.107692 L176.185651,54.9850137 L134.539615,54.9850137 L134.539615,185.107692 Z M155.610111,0 C169.491746,0 178.664384,4.97588969 178.664384,19.1582676 C178.664384,33.5874682 169.491746,38.8133013 155.610111,38.8133013 C141.728758,38.8133013 132.308219,33.5874682 132.308219,19.1582676 C132.308219,4.97588969 141.728758,0 155.610111,0 Z" id="Fill-3"></path>
                    <path d="M282,54.8490153 L282,96.7866245 C276.244784,94.036449 268.494262,91.7856055 260.488233,91.7856055 C246.489443,91.7856055 236.731355,101.038788 233.233226,113.042146 L233.233226,186.071795 L191.219178,186.071795 L191.219178,55.2767697 L233.233226,55.2767697 L233.233226,78.0301655 C240.734512,63.0273938 251.739631,53.025641 268.743783,53.025641 C273.316987,53.025641 277.771276,53.661284 282,54.8490153" id="Fill-5"></path>
                </g>
            </g>
        </g>
    </g>
</svg>