<?xml version="1.0" encoding="UTF-8"?>
<svg width="87px" height="131px" viewBox="0 0 87 131" version="1.1" xmlns="http://www.w3.org/2000/svg" xmlns:xlink="http://www.w3.org/1999/xlink">
    <!-- Generator: Sketch 50.2 (55047) - http://www.bohemiancoding.com/sketch -->
    <title>Group 2</title>
    <desc>Created with Sketch.</desc>
    <defs></defs>
    <g id="HOME" stroke="none" stroke-width="1" fill="none" fill-rule="evenodd">
        <g id="MVL-Home" transform="translate(-213.000000, -2749.000000)" fill="#C3002F">
            <g id="Group-2" transform="translate(213.000000, 2749.000000)">
                <path d="M54.4796389,120.463173 C58.5460456,120.463173 61.9153313,118.758452 64.3549899,117.053601 L64.3549899,107.73388 C62.845091,107.393298 60.9863666,107.165596 59.1268473,107.165596 C52.2720891,107.165596 46.8118378,109.438601 46.8118378,114.32584 C46.8118378,118.758452 49.8324306,120.463173 54.4796389,120.463173 Z M32.7533634,76.4790583 C38.7952113,74.3195805 48.2056824,72.387805 56.8032431,72.387805 C76.7868486,72.387805 83.4096306,82.7299188 83.4096306,96.709307 L83.4096306,132.851238 L64.3549899,132.851238 L64.3549899,127.282188 C60.4054324,130.919462 54.8284644,133.987805 47.0439465,133.987805 C34.6120878,133.987805 27.757992,127.055263 27.757992,116.37192 C27.757992,102.960816 38.7952113,95.6869149 55.4093986,95.6869149 C58.6627624,95.6869149 61.6832226,95.9139691 64.3549899,96.3687256 C64.2389355,90.3449193 61.2184753,88.0719144 54.9445188,88.0719144 C48.6705622,88.0719144 40.76999,89.8901628 36.0067273,91.8227159 L32.7533634,76.4790583 Z" id="Fill-1" transform="translate(55.583811, 103.187805) rotate(-90.000000) translate(-55.583811, -103.187805) "></path>
                <path d="M33.074814,101.047326 L52.4284998,101.047326 L52.4284998,41.6615499 L33.074814,41.6615499 L33.074814,101.047326 Z M42.8666643,16.5673256 C49.3177178,16.5673256 53.5804127,18.8382369 53.5804127,25.3108328 C53.5804127,31.8960743 49.3177178,34.2810556 42.8666643,34.2810556 C36.4157422,34.2810556 32.0378429,31.8960743 32.0378429,25.3108328 C32.0378429,18.8382369 36.4157422,16.5673256 42.8666643,16.5673256 Z" id="Fill-3" transform="translate(42.809128, 58.807326) rotate(-90.000000) translate(-42.809128, -58.807326) "></path>
                <path d="M76.2370712,-8.37668183 L76.2370712,10.7629291 C73.5625155,9.50779588 69.9607044,8.48054921 66.2401537,8.48054921 C59.7346566,8.48054921 55.1998918,12.7035443 53.5742464,18.1816726 L53.5742464,51.5111612 L34.0495387,51.5111612 L34.0495387,-8.18146201 L53.5742464,-8.18146201 L53.5742464,2.20280054 C57.0602334,-4.64420911 62.1745162,-9.20883883 70.076661,-9.20883883 C72.2019137,-9.20883883 74.2719049,-8.91874218 76.2370712,-8.37668183" id="Fill-5" transform="translate(55.143305, 21.151161) rotate(-90.000000) translate(-55.143305, -21.151161) "></path>
            </g>
        </g>
    </g>
</svg>