<?xml version="1.0" encoding="UTF-8"?>
<svg width="24px" height="16px" viewBox="0 0 24 16" version="1.1" xmlns="http://www.w3.org/2000/svg" xmlns:xlink="http://www.w3.org/1999/xlink">
    <!-- Generator: Sketch 52.6 (67491) - http://www.bohemiancoding.com/sketch -->
    <title>Group 5</title>
    <desc>Created with Sketch.</desc>
    <g id="PRODUCT-DETAIL" stroke="none" stroke-width="1" fill="none" fill-rule="evenodd">
        <g id="Product-detail---Horizontal-con-iconos" transform="translate(-1010.000000, -977.000000)" stroke="#C3002F">
            <g id="Group-24" transform="translate(992.000000, 975.000000)">
                <g id="Group-5" transform="translate(19.000000, 3.000000)">
                    <path d="M22.4450951,7 C22.4450951,7 17.4470383,14 11.2811341,14 C5.11522987,14 0.117173052,7 0.117173052,7 C0.117173052,7 5.11522987,0 11.2811341,0 C17.4470383,0 22.4450951,7 22.4450951,7 Z" id="Stroke-1"></path>
                    <path d="M14.6788614,7 C14.6788614,8.933 13.1576503,10.5 11.2811341,10.5 C9.40461786,10.5 7.88340682,8.933 7.88340682,7 C7.88340682,5.067 9.40461786,3.5 11.2811341,3.5 C13.1576503,3.5 14.6788614,5.067 14.6788614,7 Z" id="Stroke-3"></path>
                </g>
            </g>
        </g>
    </g>
</svg>