<?xml version="1.0" encoding="UTF-8"?>
<svg width="15px" height="15px" viewBox="0 0 15 15" version="1.1" xmlns="http://www.w3.org/2000/svg" xmlns:xlink="http://www.w3.org/1999/xlink">
    <!-- Generator: Sketch 48.2 (47327) - http://www.bohemiancoding.com/sketch -->
    <title>Page 1</title>
    <desc>Created with Sketch.</desc>
    <defs>
        <polygon id="path-1" points="5.59176041e-06 2.23670417e-05 14.9240786 2.23670417e-05 14.9240786 14.924129 5.59176041e-06 14.924129"></polygon>
    </defs>
    <g id="02_Menu-abierto-redes-asia" stroke="none" stroke-width="1" fill="none" fill-rule="evenodd" transform="translate(-1110.000000, -654.000000)">
        <g id="Page-1" transform="translate(1110.070000, 654.000000)">
            <mask id="mask-2" fill="white">
                <use xlink:href="#path-1"></use>
            </mask>
            <g id="Clip-2"></g>
            <path d="M14.1004123,2.23670417e-05 L0.823671901,2.23670417e-05 C0.368726273,2.23670417e-05 5.59176041e-06,0.368743049 5.59176041e-06,0.823688676 L5.59176041e-06,14.1004291 C5.59176041e-06,14.5553188 0.368726273,14.9241513 0.823671901,14.9241513 L7.97145149,14.9241513 L7.97145149,9.14473143 L6.02652538,9.14473143 L6.02652538,6.89237034 L7.97145149,6.89237034 L7.97145149,5.2313379 C7.97145149,3.30374625 9.14874072,2.25411691 10.8683189,2.25411691 C11.6920411,2.25411691 12.399958,2.3154026 12.606238,2.34280223 L12.606238,4.35728983 L11.4136274,4.35784901 C10.4784613,4.35784901 10.2973442,4.80222621 10.2973442,5.45433731 L10.2973442,6.89237034 L12.5277297,6.89237034 L12.2373496,9.14473143 L10.2973442,9.14473143 L10.2973442,14.9241513 L14.1004123,14.9241513 C14.555302,14.9241513 14.9240786,14.5553188 14.9240786,14.1004291 L14.9240786,0.823688676 C14.9240786,0.368743049 14.555302,2.23670417e-05 14.1004123,2.23670417e-05" id="Fill-1" fill="#FEFEFE" mask="url(#mask-2)"></path>
        </g>
    </g>
</svg>