<?xml version="1.0" encoding="UTF-8"?>
<svg width="22px" height="15px" viewBox="0 0 22 15" version="1.1" xmlns="http://www.w3.org/2000/svg" xmlns:xlink="http://www.w3.org/1999/xlink">
    <!-- Generator: Sketch 46 (44423) - http://www.bohemiancoding.com/sketch -->
    <title>Shape</title>
    <desc>Created with Sketch.</desc>
    <defs></defs>
    <g id="MENU" stroke="none" stroke-width="1" fill="none" fill-rule="evenodd">
        <g id="Desktop-HD--(+1280)-Copy-14" transform="translate(-1135.000000, -665.000000)" fill-rule="nonzero" fill="#FFFFFF">
            <path d="M1156.04595,667.401208 C1155.78376,666.262263 1154.85218,665.421981 1153.7307,665.296636 C1151.075,665.000183 1148.38703,664.998635 1145.71143,665.000183 C1143.0354,664.998635 1140.34698,665.000183 1137.69129,665.296636 C1136.57047,665.421981 1135.63955,666.262263 1135.37736,667.401208 C1135.0042,669.023188 1135,670.793726 1135,672.463678 C1135,674.133629 1135,675.903946 1135.37316,677.525705 C1135.63491,678.664429 1136.56605,679.504711 1137.68753,679.630278 C1140.34301,679.926952 1143.0312,679.928499 1145.70723,679.926952 C1148.38371,679.928499 1151.07124,679.926952 1153.72649,679.630278 C1154.84731,679.504932 1155.77912,678.66465 1156.0413,677.525705 C1156.41469,675.903725 1156.41601,674.133408 1156.41601,672.463678 C1156.41601,670.793726 1156.41911,669.023188 1156.04595,667.401208 Z M1142.94432,675.787664 C1142.94432,673.418694 1142.94432,671.074483 1142.94432,668.705291 C1145.21403,669.889556 1147.46871,671.065861 1149.75279,672.257421 C1147.47578,673.438369 1145.22,674.6076 1142.94432,675.787664 Z" id="Shape"></path>
        </g>
    </g>
</svg>