<?xml version="1.0" encoding="UTF-8"?>
<svg width="16px" height="16px" viewBox="0 0 16 16" version="1.1" xmlns="http://www.w3.org/2000/svg" xmlns:xlink="http://www.w3.org/1999/xlink">
    <!-- Generator: Sketch 46.2 (44496) - http://www.bohemiancoding.com/sketch -->
    <title>LinkedIn</title>
    <desc>Created with Sketch.</desc>
    <defs></defs>
    <g id="MENU" stroke="none" stroke-width="1" fill="none" fill-rule="evenodd">
        <g id="02_Menu-abierto-Copy" transform="translate(-1357.000000, -653.000000)" fill-rule="nonzero" fill="#FF8594">
            <path d="M1372.94964,662.344134 L1372.94964,668.240819 L1369.53112,668.240819 L1369.53112,662.739058 C1369.53112,661.356971 1369.03667,660.413751 1367.79927,660.413751 C1366.85468,660.413751 1366.29255,661.049412 1366.04525,661.664308 C1365.95507,661.88413 1365.93186,662.190095 1365.93186,662.497802 L1365.93186,668.240819 L1362.51218,668.240819 C1362.51218,668.240819 1362.55824,658.922642 1362.51218,657.95721 L1365.93152,657.95721 L1365.93152,659.41487 C1365.92459,659.425772 1365.91558,659.437527 1365.90905,659.448096 L1365.93152,659.448096 L1365.93152,659.41487 C1366.38581,658.715168 1367.19713,657.71562 1369.01312,657.71562 C1371.263,657.715583 1372.94964,659.185406 1372.94964,662.344134 Z M1358.93506,653 C1357.76519,653 1357,653.76734 1357,654.776418 C1357,655.763507 1357.74305,656.554134 1358.88967,656.554134 L1358.91251,656.554134 C1360.10503,656.554134 1360.84667,655.763655 1360.84667,654.776418 C1360.8242,653.76734 1360.10503,653 1358.93506,653 Z M1357.2031,668.240819 L1360.62148,668.240819 L1360.62148,657.95721 L1357.2031,657.95721 L1357.2031,668.240819 Z" id="LinkedIn"></path>
        </g>
    </g>
</svg>