<?xml version="1.0" encoding="UTF-8"?>
<svg width="22px" height="15px" viewBox="0 0 22 15" version="1.1" xmlns="http://www.w3.org/2000/svg" xmlns:xlink="http://www.w3.org/1999/xlink">
    <!-- Generator: Sketch 46.2 (44496) - http://www.bohemiancoding.com/sketch -->
    <title>Shape</title>
    <desc>Created with Sketch.</desc>
    <defs></defs>
    <g id="MENU" stroke="none" stroke-width="1" fill="none" fill-rule="evenodd">
        <g id="02_Menu-abierto-Copy" transform="translate(-1217.000000, -654.000000)" fill-rule="nonzero" fill="#FF8594">
            <path d="M1238.04595,656.401208 C1237.78376,655.262263 1236.85218,654.421981 1235.7307,654.296636 C1233.075,654.000183 1230.38703,653.998635 1227.71143,654.000183 C1225.0354,653.998635 1222.34698,654.000183 1219.69129,654.296636 C1218.57047,654.421981 1217.63955,655.262263 1217.37736,656.401208 C1217.0042,658.023188 1217,659.793726 1217,661.463678 C1217,663.133629 1217,664.903946 1217.37316,666.525705 C1217.63491,667.664429 1218.56605,668.504711 1219.68753,668.630278 C1222.34301,668.926952 1225.0312,668.928499 1227.70723,668.926952 C1230.38371,668.928499 1233.07124,668.926952 1235.72649,668.630278 C1236.84731,668.504932 1237.77912,667.66465 1238.0413,666.525705 C1238.41469,664.903725 1238.41601,663.133408 1238.41601,661.463678 C1238.41601,659.793726 1238.41911,658.023188 1238.04595,656.401208 Z M1224.94432,664.787664 C1224.94432,662.418694 1224.94432,660.074483 1224.94432,657.705291 C1227.21403,658.889556 1229.46871,660.065861 1231.75279,661.257421 C1229.47578,662.438369 1227.22,663.6076 1224.94432,664.787664 Z" id="Shape"></path>
        </g>
    </g>
</svg>