<?xml version="1.0" encoding="UTF-8"?>
<svg width="16px" height="16px" viewBox="0 0 16 16" version="1.1" xmlns="http://www.w3.org/2000/svg" xmlns:xlink="http://www.w3.org/1999/xlink">
    <!-- Generator: Sketch 46 (44423) - http://www.bohemiancoding.com/sketch -->
    <title>LinkedIn</title>
    <desc>Created with Sketch.</desc>
    <defs></defs>
    <g id="MENU" stroke="none" stroke-width="1" fill="none" fill-rule="evenodd">
        <g id="Desktop-HD--(+1280)-Copy-14" transform="translate(-1275.000000, -664.000000)" fill-rule="nonzero" fill="#FFFFFF">
            <path d="M1290.94964,673.344134 L1290.94964,679.240819 L1287.53112,679.240819 L1287.53112,673.739058 C1287.53112,672.356971 1287.03667,671.413751 1285.79927,671.413751 C1284.85468,671.413751 1284.29255,672.049412 1284.04525,672.664308 C1283.95507,672.88413 1283.93186,673.190095 1283.93186,673.497802 L1283.93186,679.240819 L1280.51218,679.240819 C1280.51218,679.240819 1280.55824,669.922642 1280.51218,668.95721 L1283.93152,668.95721 L1283.93152,670.41487 C1283.92459,670.425772 1283.91558,670.437527 1283.90905,670.448096 L1283.93152,670.448096 L1283.93152,670.41487 C1284.38581,669.715168 1285.19713,668.71562 1287.01312,668.71562 C1289.263,668.715583 1290.94964,670.185406 1290.94964,673.344134 Z M1276.93506,664 C1275.76519,664 1275,664.76734 1275,665.776418 C1275,666.763507 1275.74305,667.554134 1276.88967,667.554134 L1276.91251,667.554134 C1278.10503,667.554134 1278.84667,666.763655 1278.84667,665.776418 C1278.8242,664.76734 1278.10503,664 1276.93506,664 Z M1275.2031,679.240819 L1278.62148,679.240819 L1278.62148,668.95721 L1275.2031,668.95721 L1275.2031,679.240819 Z" id="LinkedIn"></path>
        </g>
    </g>
</svg>