<?xml version="1.0" encoding="UTF-8"?>
<svg width="19px" height="15px" viewBox="0 0 19 15" version="1.1" xmlns="http://www.w3.org/2000/svg" xmlns:xlink="http://www.w3.org/1999/xlink">
    <!-- Generator: Sketch 48.2 (47327) - http://www.bohemiancoding.com/sketch -->
    <title>icon-twitter-hover</title>
    <desc>Created with Sketch.</desc>
    <defs>
        <polygon id="path-1" points="2.19558828e-05 0 18.296569 0 18.296569 14.8698412 2.19558828e-05 14.8698412"></polygon>
    </defs>
    <g id="Page-1" stroke="none" stroke-width="1" fill="none" fill-rule="evenodd">
        <g id="icon-twitter-hover">
            <mask id="mask-2" fill="white">
                <use xlink:href="#path-1"></use>
            </mask>
            <g id="path-1"></g>
            <path d="M5.75414653,14.8698412 C12.6587594,14.8698412 16.4346589,9.14952867 16.4346589,4.18932881 C16.4346589,4.02678209 16.4313655,3.86504042 16.4239005,3.70403061 C17.1567879,3.17423516 17.7939476,2.51314353 18.296591,1.76042268 C17.6239359,2.05916906 16.9001236,2.26057769 16.140816,2.35140186 C16.9157855,1.8867422 17.5108631,1.15136649 17.7914593,0.274887653 C17.0660369,0.704857024 16.2629639,1.01765517 15.4079286,1.18605679 C14.7229051,0.456389617 13.7474052,0 12.6678345,0 C10.5946868,0 8.9134517,1.68123513 8.9134517,3.75357772 C8.9134517,4.04822567 8.94645871,4.33460357 9.01086263,4.60949122 C5.89115124,4.45265303 3.12463682,2.95884795 1.27346316,0.687511877 C0.950784867,1.24211748 0.765038099,1.8867422 0.765038099,2.57425407 C0.765038099,3.87660385 1.42781301,5.02628706 2.43551485,5.69886894 C1.81979871,5.67991369 1.2412612,5.51070702 0.735324471,5.22930579 C0.734519422,5.24496766 0.734519422,5.26062952 0.734519422,5.27709643 C0.734519422,7.09533627 2.02867234,8.61307326 3.74613468,8.95726832 C3.4308482,9.04304264 3.09909481,9.08929636 2.75658304,9.08929636 C2.51477559,9.08929636 2.27955489,9.06536445 2.05092097,9.02159906 C2.52875416,10.512989 3.91446311,11.5982683 5.55771457,11.6288601 C4.27270994,12.6356837 2.65419544,13.235738 0.895456043,13.235738 C0.592538046,13.235738 0.293791668,13.2183929 2.19558828e-05,13.1837026 C1.66135042,14.2483433 3.63386693,14.8698412 5.75414653,14.8698412" id="Fill-1" fill="#FF8594" fill-rule="nonzero" mask="url(#mask-2)"></path>
        </g>
    </g>
</svg>