<?xml version="1.0" encoding="UTF-8"?>
<svg width="15px" height="15px" viewBox="0 0 15 15" version="1.1" xmlns="http://www.w3.org/2000/svg" xmlns:xlink="http://www.w3.org/1999/xlink">
    <!-- Generator: Sketch 48.2 (47327) - http://www.bohemiancoding.com/sketch -->
    <title>icon-facebook-hover</title>
    <desc>Created with Sketch.</desc>
    <defs>
        <polygon id="path-1" points="0.0700055918 2.23670417e-05 14.9940786 2.23670417e-05 14.9940786 14.924129 0.0700055918 14.924129"></polygon>
    </defs>
    <g id="Page-1" stroke="none" stroke-width="1" fill="none" fill-rule="evenodd">
        <g id="icon-facebook-hover">
            <mask id="mask-2" fill="white">
                <use xlink:href="#path-1"></use>
            </mask>
            <g id="path-1"></g>
            <path d="M14.1704123,2.23670417e-05 L0.893671901,2.23670417e-05 C0.438726273,2.23670417e-05 0.0700055918,0.368743049 0.0700055918,0.823688676 L0.0700055918,14.1004291 C0.0700055918,14.5553188 0.438726273,14.9241513 0.893671901,14.9241513 L8.04145149,14.9241513 L8.04145149,9.14473143 L6.09652538,9.14473143 L6.09652538,6.89237034 L8.04145149,6.89237034 L8.04145149,5.2313379 C8.04145149,3.30374625 9.21874072,2.25411691 10.9383189,2.25411691 C11.7620411,2.25411691 12.469958,2.3154026 12.676238,2.34280223 L12.676238,4.35728983 L11.4836274,4.35784901 C10.5484613,4.35784901 10.3673442,4.80222621 10.3673442,5.45433731 L10.3673442,6.89237034 L12.5977297,6.89237034 L12.3073496,9.14473143 L10.3673442,9.14473143 L10.3673442,14.9241513 L14.1704123,14.9241513 C14.625302,14.9241513 14.9940786,14.5553188 14.9940786,14.1004291 L14.9940786,0.823688676 C14.9940786,0.368743049 14.625302,2.23670417e-05 14.1704123,2.23670417e-05" id="Fill-1" fill="#FF8594" fill-rule="nonzero" mask="url(#mask-2)"></path>
        </g>
    </g>
</svg>