<svg height="15" viewBox="0 0 15 15" width="15" xmlns="http://www.w3.org/2000/svg"><g fill="#ff8594"><path d="m7.49764881.00473214c-2.03625 0-2.29157738.00863095-3.09127976.04511905-.79803572.03639881-1.34306547.16315476-1.81997024.3485119-.49303572.19157739-.91116072.44794644-1.32800595.86476191-.41681548.41684524-.67318453.83497024-.86476191 1.32800595-.18535714.47690477-.31211309 1.02193453-.3485119 1.81997024-.0364881.79970239-.04511905 1.05502976-.04511905 3.09127976 0 2.03622022.00863095 2.29154763.04511905 3.09124995.03639881.7980358.16315476 1.3430655.3485119 1.8199703.19157738.4930357.44794643.9111607.86476191 1.328006.41684523.4168154.83497023.6731845 1.32800595.8647916.47690477.1853274 1.02193452.3120834 1.81997024.3484821.79970238.0364882 1.05502976.0451191 3.09127976.0451191 2.03622027 0 2.29154761-.0086309 3.09124999-.0451191.7980357-.0363987 1.3430655-.1631547 1.8199703-.3484821.4930357-.1916071.9111607-.4479762 1.3280059-.8647916.4168155-.4168453.6731845-.8349703.8647917-1.328006.1853274-.4769048.3120833-1.0219345.3484821-1.8199703.0364881-.79970232.045119-1.05502973.045119-3.09124995 0-2.03625-.0086309-2.29157737-.045119-3.09127976-.0363988-.79803571-.1631547-1.34306547-.3484821-1.81997024-.1916072-.49303571-.4479762-.91116071-.8647917-1.32800595-.4168452-.41681547-.8349703-.67318452-1.3280059-.86476191-.4769048-.18535714-1.0219346-.31211309-1.8199703-.3485119-.79970238-.0364881-1.05502972-.04511905-3.09124999-.04511905zm0 1.35092262c2.00193452 0 2.23907736.00764881 3.02967259.04372024.7310119.03333333 1.128006.15547619 1.3922024.25815476.3499703.13601191.5997321.29848215.8620834.5608631.2623809.26235119.4248511.51211309.5608631.86208333.1026785.26419643.2248214.66119048.2581547 1.39220239.0360714.79059523.0437203 1.02773809.0437203 3.02970237 0 2.00193455-.0076489 2.23907738-.0437203 3.02967265-.0333333.7310119-.1554762 1.1280059-.2581547 1.3922023-.136012.3499703-.2984822.5997322-.5608631.8620834-.2623513.262381-.5121131.4248512-.8620834.5608631-.2641964.1026785-.6611905.2248214-1.3922024.2581548-.79047615.0360714-1.02758923.0437202-3.02967259.0437202-2.00211309 0-2.23919643-.0076488-3.02970238-.0437202-.7310119-.0333334-1.12800595-.1554763-1.39220238-.2581548-.34997024-.1360119-.59973214-.2984821-.86208333-.5608631-.26235119-.2623512-.42485119-.5121131-.5608631-.8620834-.10267857-.2641964-.22482143-.6611904-.25815476-1.3922023-.03607143-.79059527-.04372024-1.0277381-.04372024-3.02967265 0-2.00196428.00764881-2.23910714.04372024-3.02970237.03333333-.73101191.15547619-1.12800596.25815476-1.39220239.13601191-.34997024.29848214-.59973214.5608631-.86208333.26235119-.26238095.51211309-.42485119.86208333-.5608631.26419643-.10267857.66119048-.22482143 1.39220238-.25815476.79059524-.03607143 1.0277381-.04372024 3.02970238-.04372024z"/><path d="m7.49764881 10.0015774c-1.38029762 0-2.49922619-1.11892857-2.49922619-2.49919645 0-1.38029762 1.11892857-2.49922619 2.49922619-2.49922619 1.38026786 0 2.49919644 1.11892857 2.49919644 2.49922619 0 1.38026788-1.11892858 2.49919645-2.49919644 2.49919645zm0-6.34934526c-2.12639881 0-3.85014881 1.72375-3.85014881 3.85014881 0 2.12636905 1.72375 3.85011905 3.85014881 3.85011905 2.12636902 0 3.85011899-1.72375 3.85011899-3.85011905 0-2.12639881-1.72374997-3.85014881-3.85011899-3.85014881z"/><path d="m12.3996131 3.50011905c0 .49690476-.4028274.89970238-.8997322.89970238-.496875 0-.8997023-.40279762-.8997023-.89970238 0-.49690477.4028273-.89973214.8997023-.89973214.4969049 0 .8997322.40282737.8997322.89973214"/></g></svg>