<?xml version="1.0" encoding="UTF-8"?>
<svg width="353px" height="235px" viewBox="0 0 353 235" version="1.1" xmlns="http://www.w3.org/2000/svg" xmlns:xlink="http://www.w3.org/1999/xlink">
    <!-- Generator: Sketch 50.2 (55047) - http://www.bohemiancoding.com/sketch -->
    <title>Group 3</title>
    <desc>Created with Sketch.</desc>
    <defs></defs>
    <g id="HOME" stroke="none" stroke-width="1" fill="none" fill-rule="evenodd">
        <g id="Home-Copy-3" transform="translate(-1165.000000, -625.000000)" fill="#D2103E">
            <g id="Group-3" transform="translate(1165.000000, 625.000000)">
                <path d="M71.9778391,197.957011 C82.9311747,197.957011 92.0067345,193.287903 98.5782363,188.61844 L98.5782363,163.092395 C94.5111494,162.159567 89.5044608,161.535908 84.4956311,161.535908 C66.0315489,161.535908 51.3237322,167.761504 51.3237322,181.147298 C51.3237322,193.287903 59.4600472,197.957011 71.9778391,197.957011 Z M13.4556093,77.4876983 C29.7300236,71.5730448 55.0782133,66.2820513 78.2367351,66.2820513 C132.064882,66.2820513 149.90411,94.6083537 149.90411,132.896888 L149.90411,231.887024 L98.5782363,231.887024 L98.5782363,216.633799 C87.9396476,226.596031 72.9174408,235 51.9489437,235 C18.4622979,235 0,216.012269 0,186.751364 C0,150.019318 29.7300236,130.09663 74.482254,130.09663 C83.2455648,130.09663 91.3815229,130.718515 98.5782363,131.96406 C98.2656305,115.46529 90.1296724,109.239694 73.2300466,109.239694 C56.3304207,109.239694 35.0493179,114.219745 22.2189202,119.512868 L13.4556093,77.4876983 Z" id="Fill-1"></path>
                <path d="M168.413064,231.384615 L220.54445,231.384615 L220.54445,68.7312672 L168.413064,68.7312672 L168.413064,231.384615 Z M194.788543,0 C212.1652,0 223.64726,6.21986211 223.64726,23.9478344 C223.64726,41.9843352 212.1652,48.5166267 194.788543,48.5166267 C177.41224,48.5166267 165.619863,41.9843352 165.619863,23.9478344 C165.619863,6.21986211 177.41224,0 194.788543,0 Z" id="Fill-3"></path>
                <path d="M353,68.5612692 L353,120.983281 C345.795775,117.545561 336.093882,114.732007 326.072149,114.732007 C308.548842,114.732007 296.33393,126.298485 291.955067,141.302683 L291.955067,232.589744 L239.363014,232.589744 L239.363014,69.0959621 L291.955067,69.0959621 L291.955067,97.5377069 C301.344975,78.7842422 315.120886,66.2820513 336.406224,66.2820513 C342.130838,66.2820513 347.706598,67.076605 353,68.5612692" id="Fill-5"></path>
            </g>
        </g>
    </g>
</svg>