<?xml version="1.0" encoding="UTF-8"?>
<svg width="907px" height="516px" viewBox="0 0 907 516" version="1.1" xmlns="http://www.w3.org/2000/svg" xmlns:xlink="http://www.w3.org/1999/xlink">
    <!-- Generator: Sketch 47.1 (45422) - http://www.bohemiancoding.com/sketch -->
    <title>Group 20</title>
    <desc>Created with Sketch.</desc>
    <defs></defs>
    <g id="PRODUCT-DETAIL" stroke="none" stroke-width="1" fill="none" fill-rule="evenodd">
        <g id="Group-20">
            <polyline id="Fill-1" fill="#D1002E" points="901.916357 478.585355 907 478.357692 880 493 884.285751 488.193121 882.680636 484.760207 893.095222 474.239793 894.700337 466 901.916357 478.585355"></polyline>
            <polyline id="Fill-2" fill="#D1002E" points="876 492.846912 831.54133 516 825 510.907856 869.45867 491 876 492.846912"></polyline>
            <polyline id="Fill-3" fill="#D1002E" points="829.622519 338 831 338.497274 823.307666 344 817 341.25627 829.622519 338"></polyline>
            <polyline id="Fill-4" fill="#D1002E" points="816.108632 353.885545 824 362 809.853974 359.451073 803.86062 351.796194 796.247184 349.476043 788.080259 355.972871 779.366973 355.735997 772.285646 351.336618 761.947526 351.567418 766.843405 345.769065 763.57711 339.733837 738.812657 329.758807 738.539476 327.211904 735 324.428128 737.719933 317 747.248012 321.646376 747.248012 324.889729 752.148641 329.758807 766.304169 323.033203 802.767896 335.79201 804.953344 339.272236 812.569156 343.448913 809.853974 346.927116 816.108632 353.885545"></polyline>
            <polyline id="Fill-5" fill="#D1002E" points="759 492 752.179474 499.775139 741 500 743.175903 492.668767 759 492"></polyline>
            <polyline id="Fill-6" fill="#D1002E" points="738.2563 156.739126 741 164.873384 727.585026 168.589584 722.92456 172.774366 718.546111 171.612039 707.862888 175.79682 704.579051 183 695 174.399189 706.763496 164.406831 716.901803 163.713086 720.732945 158.830503 724.023952 157.901453 727.855094 148.606897 725.123344 140 737.168857 148.606897 736.616771 153.483395 738.2563 156.739126"></polyline>
            <polyline id="Fill-7" fill="#CE0032" points="738 130.837046 731.361949 135.313404 724.705336 133.97499 722.849188 138 717 133.521688 719.396752 129.944119 717 123.674091 717.262181 123 738 130.837046"></polyline>
            <polyline id="Fill-8" fill="#D1002E" points="729 366 725 366.421593 729 366"></polyline>
            <polyline id="Fill-9" fill="#CE0032" points="710 112 715 118 710 112"></polyline>
            <polyline id="Fill-10" fill="#D1002E" points="697.13132 355.977811 709 353 693.083253 361 692 360.082523 697.13132 355.977811"></polyline>
            <polyline id="Fill-11" fill="#D1002E" points="689.770302 311.887379 698 312.11068 677 315 682.051044 311 689.770302 311.887379"></polyline>
            <polyline id="Fill-12" fill="#D1002E" points="693 319.6682 686.67554 325.547963 692.45276 335.026938 691.6247 339.771353 680.89832 329.614323 674.85468 340 674.29784 333.680683 671 329.381735 676.77242 319 681.17434 321.704336 693 319.6682"></polyline>
            <polyline id="Fill-13" fill="#D1002E" points="683 353.643582 676 353 683 353.643582"></polyline>
            <polyline id="Fill-14" fill="#D1002E" points="678 358.994182 676.915375 360 672 357 678 358.994182"></polyline>
            <polyline id="Fill-15" fill="#D1002E" points="670 353.444229 662.192714 355 656 353 670 353.444229"></polyline>
            <polyline id="Fill-16" fill="#D1002E" points="632.043857 441.610322 629.327583 429.35344 632.318324 426.348748 631.229921 421.263575 635.022768 412.247482 672.44252 399.992618 683.281589 387.509728 691.68595 385.199203 702.262383 376.417189 706.589966 375.486926 716.352463 379.415827 727.470732 368.553332 734.789056 367.395043 734.789056 364.156272 755.93719 369.013419 753.225648 375.951048 748.618866 379.183766 768.143861 391.674727 775.185352 385.885298 785.210486 363 789.015162 376.417189 795.512452 380.580171 798.223994 397.452049 807.172556 403.239461 821 424.970505 818.023456 438.375586 774.913251 478.142852 758.381363 483 752.411712 480.687457 745.365489 482.071754 732.898548 476.29645 734.249587 471.667328 729.907807 463.341366 730.996209 460.108648 719.885039 464.965796 714.454857 454.331327 705.241293 451.318563 629.881249 466.348075 625 462.191148 632.043857 451.552643 632.043857 441.610322"></polyline>
            <polyline id="Fill-17" fill="#D1002E" points="627.412412 345.33204 631.512331 344.228472 641.613062 345.776183 641.896884 348.227696 652 352 605 344.228472 612.920786 342 627.412412 345.33204"></polyline>
            <polyline id="Fill-18" fill="#D1002E" points="635.000349 329.336129 630.177732 328.645777 624 318.788743 626.142864 308.013241 631.242131 308.703593 635.541926 304.111248 640.650571 303.196781 659.448696 286 671 293.567864 665.900733 303.653014 670.465456 311.218878 665.356811 314.658634 665.091884 319.012858 659.983239 323.605203 657.570759 331.861419 651.667332 333 643.330324 330.018478 638.763256 330.70883 635.000349 329.336129"></polyline>
            <polyline id="Fill-19" fill="#D1002E" points="617 325 617 334 617 325"></polyline>
            <polyline id="Fill-20" fill="#D1002E" points="606.225775 323.45995 610 328.080099 606.225775 331.769773 604.615972 340.544833 599.231944 341 554 293 564.225188 294.156044 595.730329 315.855033 595.45537 318.84383 602.188342 325.079218 606.225775 323.45995"></polyline>
            <polyline id="Fill-21" fill="#D1002E" points="478.842062 275 487 288.414784 480.810966 291 478 275.708419 478.842062 275"></polyline>
            <polyline id="Fill-22" fill="#D1002E" points="298.862776 391.984706 302.374912 385.959313 317.229598 379.25119 319.664522 375.082095 322.896159 373.235897 324.793655 370 331 381.792238 310.207683 424.380032 302.641269 426 295.624068 421.376425 294 411.652575 300.213417 400.775357 298.862776 391.984706"></polyline>
            <path d="M168.43122,63.2279155 L160.562859,69.9247212 L161.109667,74.7685761 L148.904712,80.9961018 L144.835605,80.3093016 L141.036351,82.8450244 L135.0688,83.5378668 L140.494277,85.612366 L145.103091,84.4582999 L152.424644,86.5388414 L166.535144,83.3042339 L171.683666,84.6919329 L178.465511,80.9961018 L182.806839,71.7655874 L190.668099,71.7655874 L186.601359,68.3054034 L181.717957,68.7706551 L207.214382,62.0738495 L185.24499,63.2279155 L177.923437,59.0728749 L176.567068,52.1504927 L189.039509,41.9995452 L177.648849,42.4587547 L175.752773,46.1545858 L163.005744,53.5361776 L161.916861,58.1524418 L168.43122,63.2279155 L168.43122,63.2279155 Z M103.879412,288.921343 L46.9213768,297.225382 L1.35636913,261.922642 L1.89607622,257.767602 L0,253.151337 L6.23977143,237.45765 L4.60881448,233.075019 L5.42547653,230.074044 L1.89607622,225.459794 L39.3276034,187.150038 L41.4982674,179.305208 L56.1413729,168.461419 L59.128699,162.693102 L53.9754432,157.150363 L46.3816697,156.461548 L46.3816697,153.228955 L44.4855935,149.539166 L47.7380389,142.61477 L47.4634511,132.693427 L82.7219471,128.077163 L83.5386091,120.228305 L77.8385448,113.771175 L69.7026971,110.308977 L80.551283,108.462068 L83.8108298,104.766237 L87.8799372,105.692713 L127.747248,85.612366 L125.851171,76.3818517 L133.987019,72.4584299 L135.610875,79.1552355 L143.746722,76.6134705 L135.883095,65.7696806 L122.591625,70.6115214 L114.727998,66.2288901 L113.371629,56.0779426 L135.883095,47.5342285 L151.068275,33.0006497 L150.261082,29.7680563 L204.23179,22.3844505 L208.296164,25.6130157 L247.623767,35.5363725 L239.215699,39.4577802 L224.844814,38.537347 L237.591843,47.0750189 L234.604517,43.6128208 L244.371322,44.3056632 L245.995177,40.8454792 L258.200132,38.537347 L259.289015,37.6169139 L257.932646,31.3813319 L264.712124,31.6149648 L263.623242,34.3823064 L267.966937,36.4628479 L289.664109,28.8476232 L294.547511,30.6945317 L314.074019,29.5404656 L312.999339,25.6130157 L343.367331,29.7680563 L336.585485,26.0782675 L333.607628,21.2303844 L337.402148,15.6936871 L349.874589,16.3825014 L353.127034,20.7691608 L358.285024,16.6141202 L362.893839,19.1558852 L369.675685,15.4600541 L374.282132,16.3825014 L374.559087,12.9203032 L388.38553,11.3050135 L388.118044,8.30403898 L445.076079,0 L450.501555,2.30813211 L467.312958,2.76734164 L484.403682,12.2314889 L513.962114,14.539621 L521.283667,11.997856 L538.914098,12.6927125 L557.091338,21.6895939 L560.61127,19.1558852 L579.872659,18.9222523 L582.58303,15.9212777 L707.627008,28.3863996 L707.885026,25.1517921 L784.923478,35.5363725 L802,45.0005198 L774.335277,41.5383216 L771.087566,44.7668868 L784.369568,52.3841256 L778.676605,52.6157445 L765.117648,61.8462588 L755.350844,60.4605739 L742.885504,63.9227721 L745.321287,70.1523119 L749.932469,70.8451543 L758.068316,76.6134705 L757.521508,79.614445 L761.590615,83.3042339 L758.884978,86.3052084 L760.506467,89.0725501 L759.699273,92.0755387 L761.048541,95.9969464 L758.603289,98.5366973 L727.418635,71.9992204 L730.940934,68.0778127 L730.673447,65.308457 L733.39092,58.3860747 L727.418635,52.8433351 L727.146414,56.0779426 L723.077307,59.3065079 L709.241395,55.3851002 L704.907168,61.8462588 L708.159613,65.308457 L699.207104,66.9237466 L688.633106,63.9227721 L659.346895,68.3054034 L654.730979,83.7714997 L657.718305,83.5378668 L666.661346,86.9980509 L671.814602,85.3847753 L684.024291,89.7674066 L687.818811,87.4592745 L710.604865,104.766237 L708.701688,110.7702 L690.796668,95.7693557 L697.860203,109.154911 L693.791096,128.997596 L686.729928,133.61386 L681.306819,132.232204 L675.346369,137.074044 L675.886076,141.692323 L671.277262,146.997401 L685.652881,157.615615 L689.182281,164.074759 L678.052006,168.689009 L671.544748,156.461548 L663.67402,153.921798 L661.238237,149.073914 L651.211047,146.076968 L644.696688,149.073914 L640.629948,141.692323 L627.882918,150.227981 L638.996623,156.691153 L644.149879,154.842231 L652.285727,156.922772 L643.607805,165.45843 L661.777944,183.00104 L661.238237,185.768381 L665.579565,188.77137 L653.649197,214.61399 L620.835953,227.306703 L623.813811,232.152572 L618.930409,238.152507 L613.772418,234.917899 L618.116114,229.381202 L611.069149,223.844505 L599.138781,233.536243 L621.368559,265.84405 L601.569831,278.538776 L600.213461,274.154131 L577.699628,259.1553 L573.090813,273.920498 L594.790352,295.152897 L598.322119,311.078202 L568.207411,279.45921 L568.207411,260.996167 L558.719928,244.382047 L549.769786,248.768706 L545.160971,245.997336 L545.975266,241.614705 L527.798026,220.611911 L476.814643,251.076838 L476.814643,270.921538 L466.773251,281.076513 L435.848981,224.766952 L429.069503,227.536308 L402.770618,207.691608 L360.460423,205.149843 L356.654068,200.767212 L350.421397,202.382501 L331.70445,196.614185 L320.581277,187.150038 L314.613726,190.382631 L327.909931,205.611067 L332.518745,205.8447 L334.956896,212.767082 L354.490505,205.383476 L362.079544,214.154781 L367.237534,214.843595 L374.024114,221.077163 L366.148651,230.994478 L365.60421,233.997466 L352.045253,243.461613 L342.013329,245.769746 L337.674368,250.6136 L297.525368,261.691023 L292.916554,249.45752 L288.582327,245.308522 L290.74589,243.00039 L272.575751,222.45882 L272.308265,218.996622 L252.234949,196.382566 L246.541986,197.99987 L265.254199,225.691413 L266.068493,233.304624 L273.664634,240.227006 L276.377372,247.383021 L297.257882,262.617499 L296.168999,266.07164 L303.76514,271.61438 L334.417189,265.84405 L333.882216,276.460249 L276.105152,341.998311 L278.275816,345.694142 L277.998861,352.842101 L283.426704,361.613406 L283.698925,381.456091 L253.863538,403.157769 L255.761982,419.765847 L242.742732,427.149453 L243.284806,430.845284 L229.181408,449.07268 L179.279806,465 L171.143958,457.848013 L172.500328,453.920563 L141.308572,391.848728 L151.615084,363.462328 L148.630125,356.304299 L149.44442,352.151272 L128.014734,320.536308 L132.63065,303.229345 L126.116291,296.999805 L113.646216,297.692648 L103.879412,288.921343 L103.879412,288.921343 Z M253.863538,371.538776 L253.863538,363.919524 L253.323831,363.919524 L253.863538,371.538776 L253.863538,371.538776 Z M250.064285,323.303649 L252.774656,318.000585 L241.118876,318.923032 L240.569701,324.922967 L247.623767,326.765847 L250.064285,323.303649 L250.064285,323.303649 Z M233.522736,347.079827 L229.721115,336.689204 L228.913921,336.689204 L233.522736,347.079827 L233.522736,347.079827 Z M418.493138,117.920173 L415.789868,120.000715 L418.493138,117.920173 L418.493138,117.920173 Z M355.3048,127.384321 L352.045253,121.382371 L355.3048,127.384321 L355.3048,127.384321 Z M335.231484,157.150363 L327.909931,142.844375 L328.724226,142.151532 L334.140234,141.462718 L326.004386,138.002534 L324.38053,134.306703 L313.801798,126.230254 L322.209866,122.306833 L321.128085,116.538517 L300.238107,121.847623 L297.802323,125.535398 L314.890681,143.996427 L312.185044,152.767731 L327.093269,159.458495 L335.231484,157.150363 L335.231484,157.150363 Z M271.49397,140.534228 L271.761456,132.232204 L253.051611,123.001689 L256.304056,116.304884 L244.371322,120.228305 L248.165841,123.227266 L239.487919,125.769031 L233.522736,119.767082 L226.201183,117.920173 L213.447052,134.765912 L216.436746,139.382177 L213.181933,142.383151 L240.304581,136.381202 L271.49397,140.534228 L271.49397,140.534228 Z M254.133392,167.768576 L252.774656,159.923747 L238.948212,161.764613 L230.267923,158.771695 L225.652007,161.305403 L215.892304,159.923747 L206.1255,143.075994 L192.299056,145.384126 L199.346021,153.001364 L192.299056,159.458495 L175.752773,142.151532 L176.027361,138.461743 L147.273755,121.382371 L144.02131,123.001689 L153.513527,135.460769 L170.329664,143.996427 L163.822406,144.924916 L165.178775,148.612691 L159.478711,153.001364 L160.83508,149.073914 L128.289322,126.689464 L115.267705,132.45778 L106.050076,130.844505 L103.065117,132.693427 L103.337338,136.381202 L87.3331287,147.458625 L87.8799372,150.693232 L62.113658,162.459469 L131.541767,156.691153 L136.42517,159.230904 L136.152949,161.998246 L138.056127,165.45843 L134.254506,170.537932 L145.103091,175.611391 L149.44442,175.383801 L157.04056,177.691933 L162.191449,182.535788 L177.109142,186.229605 L180.096468,179.538841 L224.844814,183.68784 L232.43622,180.920498 L246.541986,182.535788 L254.133392,167.768576 L254.133392,167.768576 Z M546.510239,89.0725501 L543.797501,81.2297347 L536.750536,95.5357228 L546.510239,89.0725501 L546.510239,89.0725501 Z M475.451173,8.99889551 L469.485989,10.845804 L467.047839,12.9203032 L475.451173,8.99889551 L475.451173,8.99889551 Z M360.997763,37.383281 L366.148651,29.0731998 L355.030212,21.4640173 L354.755624,22.1508175 L362.893839,32.5353979 L360.997763,37.383281 L360.997763,37.383281 Z" id="Fill-23" fill="#D1002E"></path>
            <polyline id="Fill-25" fill="#CE0032" points="238 166.852513 244 166 238 166.852513"></polyline>
            <polyline id="Fill-26" fill="#CE0032" points="145 153.684252 158 153 155.558364 158 145 153.684252"></polyline>
            <polyline id="Fill-27" fill="#CE0032" points="125.295058 142 132 146.494858 125 148 125.295058 142"></polyline>
            <polyline id="Fill-28" fill="#CE0032" points="131 135 129 138 131 135"></polyline>
            <polyline id="Fill-29" fill="#CE0032" points="77.7146197 87.8174801 75.2995636 84.1130507 72.0849439 83.4185964 67 79.0257689 67 73.0098563 72.8915212 68.6170289 79.0542394 67 80.3915212 67.2281202 78.7830424 70.2360765 83.8703242 73.0098563 81.1910848 77.1745636 97 92.9047619 94.3207606 98.4543403 69.9410848 101 72.6203242 97.7639235 69.9410848 95.4504216 72.8915212 90.5912599 77.7146197 87.8174801"></polyline>
            <polyline id="Fill-30" fill="#CE0032" points="57.6428248 82 68 83.8916217 64.4603265 93.1145668 47 95 50.5468148 90.7505554 49.1828384 87.2045382 57.6428248 82"></polyline>
        </g>
    </g>
</svg>